<?xml version="1.0" encoding="UTF-8" standalone="no"?><!DOCTYPE svg PUBLIC "-//W3C//DTD SVG 1.1//EN" "http://www.w3.org/Graphics/SVG/1.1/DTD/svg11.dtd"><svg width="100%" height="100%" viewBox="0 0 25 33" version="1.1" xmlns="http://www.w3.org/2000/svg" xmlns:xlink="http://www.w3.org/1999/xlink" xml:space="preserve" xmlns:serif="http://www.serif.com/" style="fill-rule:evenodd;clip-rule:evenodd;stroke-linecap:round;stroke-linejoin:round;stroke-miterlimit:1.5;"><g id="plant"><path d="M8.459,10.069c-0,-0 -0.171,-6.241 1.04,-8.063c1.097,-1.653 3.33,-2.104 4.982,-1.006c1.652,1.097 2.103,3.33 1.006,4.982c-1.21,1.823 -7.028,4.087 -7.028,4.087Z" style="fill:#8dc09d;stroke:#9d4170;stroke-width:0.8px;"/><path d="M9.695,16.655c-0,-0 0.883,-7.712 2.728,-9.526c1.921,-1.888 5.014,-1.861 6.902,0.06c1.888,1.92 1.862,5.013 -0.059,6.901c-1.845,1.814 -9.571,2.565 -9.571,2.565Z" style="fill:#8dc09d;stroke:#9d4170;stroke-width:0.8px;"/><path d="M12.815,16.098c-0,-0 -7.496,-2.529 -9.606,-4.69c-1.386,-1.419 -1.36,-3.696 0.059,-5.082c1.419,-1.386 3.696,-1.36 5.083,0.059c2.11,2.16 4.464,9.713 4.464,9.713Z" style="fill:#8dc09d;stroke:#9d4170;stroke-width:0.8px;"/><path d="M3.458,18.381l17.479,-0l-1.974,14.027l-13.53,0l-1.975,-14.027Z" style="fill:#f49aa3;stroke:#9d4170;stroke-width:0.8px;"/><path d="M23.92,14.771l-0,5.104c-0,0.56 -0.455,1.015 -1.015,1.015l-21.49,0c-0.56,0 -1.015,-0.455 -1.015,-1.015l0,-5.104c0,-0.561 0.455,-1.016 1.015,-1.016l21.49,0c0.56,0 1.015,0.455 1.015,1.016Z" style="fill:#f49aa3;stroke:#9d4170;stroke-width:0.8px;"/><path d="M3.648,9.079c0.51,-2.541 3.27,-1.893 3.574,-1.511" style="fill:none;stroke:#c4decc;stroke-width:0.8px;"/><path d="M11.181,1.872c1.178,-0.255 1.228,-0.571 2.283,0.04c1.199,0.694 0.976,0.923 0.931,2.282" style="fill:none;stroke:#c4decc;stroke-width:0.8px;"/><path d="M13.17,8.164c2.212,-0.765 2.253,-1.572 4.382,-0.603c1.281,0.583 2.114,2.357 1.158,4.006" style="fill:none;stroke:#c4decc;stroke-width:0.8px;"/><path d="M1.944,15l2.055,-0" style="fill:none;stroke:#fff;stroke-width:0.8px;"/><path d="M21.076,15.013l1.613,-0" style="fill:none;stroke:#fff;stroke-width:0.8px;"/></g></svg>