<?xml version="1.0" encoding="UTF-8" standalone="no"?>
<!DOCTYPE svg PUBLIC "-//W3C//DTD SVG 1.1//EN" "http://www.w3.org/Graphics/SVG/1.1/DTD/svg11.dtd">
<svg width="100%" height="100%" viewBox="0 0 2400 1500" version="1.1" xmlns="http://www.w3.org/2000/svg" xmlns:xlink="http://www.w3.org/1999/xlink" xml:space="preserve" xmlns:serif="http://www.serif.com/" style="fill-rule:evenodd;clip-rule:evenodd;stroke-linecap:round;stroke-linejoin:round;stroke-miterlimit:1.5;">
    <g transform="matrix(1,0,0,1,19.2861,41.0259)">
        <g transform="matrix(1,0,0,1,560,350)">
            <path d="M1161.09,160.363L1161.09,472.64C1161.09,506.912 1133.27,534.736 1099,534.736L186.272,534.736C152,534.736 124.175,506.912 124.175,472.64L124.175,160.363C124.175,126.091 152,98.266 186.272,98.266L1099,98.266C1133.27,98.266 1161.09,126.091 1161.09,160.363Z" style="fill:rgb(181,216,202);"/>
        </g>
        <g transform="matrix(1.30466,0,0,0.58179,482.28,431.34)">
            <path d="M498.28,250.024C491.193,256.338 481.828,260.18 471.567,260.18C449.478,260.18 431.544,242.376 431.544,220.447C431.544,199.648 447.678,182.56 468.188,180.855C468.148,179.479 468.128,178.094 468.128,176.699C468.128,134.869 486.234,100.907 508.536,100.907C527.621,100.907 543.634,125.779 547.856,159.169C561.77,167.242 571.2,182.788 571.2,200.624C571.2,226.756 550.958,247.972 526.025,247.972C524.842,247.972 523.669,247.924 522.509,247.83C518.154,250.845 513.446,252.491 508.536,252.491C504.993,252.491 501.555,251.634 498.28,250.024Z" style="fill:white;"/>
        </g>
        <g transform="matrix(0.808796,0,0,0.355515,1126.2,492.138)">
            <path d="M498.28,250.024C491.193,256.338 481.828,260.18 471.567,260.18C449.478,260.18 431.544,242.376 431.544,220.447C431.544,199.648 447.678,182.56 468.188,180.855C468.148,179.479 468.128,178.094 468.128,176.699C468.128,134.869 486.234,100.907 508.536,100.907C527.621,100.907 543.634,125.779 547.856,159.169C561.77,167.242 571.2,182.788 571.2,200.624C571.2,226.756 550.958,247.972 526.025,247.972C524.842,247.972 523.669,247.924 522.509,247.83C518.154,250.845 513.446,252.491 508.536,252.491C504.993,252.491 501.555,251.634 498.28,250.024Z" style="fill:white;"/>
        </g>
        <g transform="matrix(1,0,0,1,684.001,350)">
            <g>
                <g transform="matrix(0.649647,0,0,1,266.878,-10.9494)">
                    <ellipse cx="767.489" cy="364.267" rx="73.768" ry="83.431" style="fill:rgb(251,238,210);stroke:rgb(126,48,92);stroke-width:3.95px;"/>
                </g>
                <g transform="matrix(1,0,0,1,304.249,-67.9106)">
                    <circle cx="461.314" cy="335.284" r="66.494" style="fill:rgb(251,238,210);stroke:rgb(145,66,82);stroke-width:4.17px;"/>
                </g>
                <g transform="matrix(1,0,0,1,304.249,-67.9106)">
                    <path d="M461.314,369.36C498.013,369.36 526.289,335.75 526.289,335.75C526.289,372.449 498.013,401.778 461.314,401.778C424.615,401.778 396.442,372.73 396.442,336.031C396.442,336.031 424.615,369.36 461.314,369.36Z" style="fill:rgb(232,176,172);"/>
                </g>
                <g transform="matrix(-1,-1.22465e-16,1.22465e-16,-1,1226.88,603.151)">
                    <path d="M461.314,382.562C498.013,382.562 526.125,335.284 526.125,335.284C526.125,371.983 498.013,401.778 461.314,401.778C424.615,401.778 396.349,372.017 396.349,335.318C396.349,335.318 424.615,382.562 461.314,382.562Z" style="fill:rgb(253,244,214);"/>
                </g>
                <g transform="matrix(0.264544,0,0,0.326367,620.159,165.919)">
                    <path d="M466.155,284.389L466.155,328.818C466.155,336.914 458.046,343.486 448.058,343.486C438.071,343.486 429.962,336.914 429.962,328.818L429.962,284.389C429.962,276.293 438.071,269.72 448.058,269.72C458.046,269.72 466.155,276.293 466.155,284.389Z" style="fill:rgb(126,48,92);"/>
                </g>
                <g transform="matrix(0.264544,0,0,0.326367,668.222,165.919)">
                    <path d="M466.155,284.389L466.155,328.818C466.155,336.914 458.046,343.486 448.058,343.486C438.071,343.486 429.962,336.914 429.962,328.818L429.962,284.389C429.962,276.293 438.071,269.72 448.058,269.72C458.046,269.72 466.155,276.293 466.155,284.389Z" style="fill:rgb(126,48,92);"/>
                </g>
            </g>
            <g transform="matrix(0.803447,0,0,0.803447,-2.65552,72.078)">
                <path d="M1075.68,283.663L1075.68,334.017C1075.68,347.912 1064.4,359.194 1050.5,359.194L947.644,359.194C933.748,359.194 922.467,347.912 922.467,334.017L922.467,283.663C922.467,269.767 933.748,258.486 947.644,258.486L1050.5,258.486C1064.4,258.486 1075.68,269.767 1075.68,283.663Z" style="fill:rgb(67,67,67);"/>
                <path d="M1019.74,316.579L1019.74,374.374C1019.74,379.454 1015.62,383.578 1010.54,383.578L992.133,383.578C987.053,383.578 982.929,379.454 982.929,374.374L982.929,316.579C982.929,311.499 987.053,307.375 992.133,307.375L1010.54,307.375C1015.62,307.375 1019.74,311.499 1019.74,316.579Z" style="fill:rgb(67,67,67);"/>
            </g>
        </g>
        <g transform="matrix(1,0,0,1,560,350)">
            <g transform="matrix(1,0,0,1,0,-26)">
                <path d="M1212.02,478.92L1212.02,606.065C1212.02,641.151 1183.53,669.637 1148.44,669.637L139.485,669.637C104.399,669.637 75.913,641.151 75.913,606.065L75.913,478.92C75.913,443.834 104.399,415.348 139.485,415.348L1148.44,415.348C1183.53,415.348 1212.02,443.834 1212.02,478.92Z" style="fill:rgb(215,181,166);"/>
            </g>
            <g transform="matrix(1,0,0,0.341062,0,247.689)">
                <path d="M1212.02,478.92L1212.02,669.637L75.913,669.637L75.913,478.92C75.913,443.834 85.628,415.348 97.595,415.348L1190.33,415.348C1202.3,415.348 1212.02,443.834 1212.02,478.92Z" style="fill:rgb(212,170,152);"/>
            </g>
            <path d="M1233.62,386.661L1233.62,421.042C1233.62,430.53 1225.91,438.233 1216.43,438.233L72.458,438.233C62.97,438.233 55.267,430.53 55.267,421.042L55.267,386.661C55.267,377.173 62.97,369.47 72.458,369.47L1216.43,369.47C1225.91,369.47 1233.62,377.173 1233.62,386.661Z" style="fill:rgb(224,224,224);stroke:rgb(170,143,158);stroke-width:3.33px;"/>
        </g>
        <g transform="matrix(1,0,0,1,560,350)">
            <g transform="matrix(-0.835625,-0.554906,0.515629,-0.776478,245.63,558.944)">
                <path d="M172.557,242.591C172.557,242.591 187.486,265.411 187.486,275.19C187.486,284.058 180.797,291.257 172.557,291.257C164.318,291.257 157.628,284.058 157.628,275.19C157.628,265.411 172.557,242.591 172.557,242.591Z" style="fill:rgb(141,192,157);stroke:rgb(157,65,112);stroke-width:3.44px;"/>
            </g>
            <g transform="matrix(-0.954845,-0.971387,0.824527,-0.810486,196.417,666.502)">
                <path d="M172.557,242.591C172.557,242.591 187.486,264.345 187.486,273.669C187.486,283.376 180.797,291.257 172.557,291.257C164.318,291.257 157.628,283.376 157.628,273.669C157.628,264.345 172.557,242.591 172.557,242.591Z" style="fill:rgb(141,192,157);stroke:rgb(157,65,112);stroke-width:2.64px;"/>
            </g>
            <g transform="matrix(-0.717513,0.700974,-0.817339,-0.836624,566.765,381.943)">
                <path d="M172.557,242.591C172.557,242.591 187.486,267.694 187.486,278.453C187.486,285.52 180.797,291.257 172.557,291.257C164.318,291.257 157.628,285.52 157.628,278.453C157.628,267.694 172.557,242.591 172.557,242.591Z" style="fill:rgb(141,192,157);stroke:rgb(157,65,112);stroke-width:3.06px;"/>
            </g>
            <g transform="matrix(-1.13753,-1.39308e-16,1.22465e-16,-1,512.499,677.361)">
                <path d="M269.714,367.905L205.69,367.905L212.921,309.456L262.483,309.456L269.714,367.905Z" style="fill:rgb(244,154,163);stroke:rgb(157,65,112);stroke-width:3.11px;"/>
            </g>
            <path d="M290.946,294.414L290.946,315.684C290.946,318.018 289.051,319.913 286.717,319.913L197.176,319.913C194.842,319.913 192.947,318.018 192.947,315.684L192.947,294.414C192.947,292.08 194.842,290.185 197.176,290.185L286.717,290.185C289.051,290.185 290.946,292.08 290.946,294.414Z" style="fill:rgb(244,154,163);stroke:rgb(157,65,112);stroke-width:3.33px;"/>
            <path d="M206.482,270.699C208.606,260.114 220.106,262.811 221.371,264.402" style="fill:none;stroke:rgb(196,222,204);stroke-width:3.33px;"/>
            <path d="M237.866,240.669C242.776,239.609 242.982,238.292 247.382,240.839C252.375,243.731 251.446,244.683 251.26,250.347" style="fill:none;stroke:rgb(196,222,204);stroke-width:3.33px;"/>
            <path d="M246.155,266.888C255.372,263.699 255.541,260.339 264.412,264.374C269.75,266.803 273.22,274.197 269.24,281.066" style="fill:none;stroke:rgb(196,222,204);stroke-width:3.33px;"/>
            <path d="M199.38,295.369L207.944,295.369" style="fill:none;stroke:white;stroke-width:3.33px;"/>
            <path d="M279.096,295.424L285.817,295.424" style="fill:none;stroke:white;stroke-width:3.33px;"/>
        </g>
        <g transform="matrix(1,0,0,1,542.535,372.728)">
            <g transform="matrix(1,0,0,1,8.5296,-1.83514)">
                <g transform="matrix(0.978178,0,0,1.28699,9.75675,12.428)">
                    <ellipse cx="491.256" cy="380.693" rx="79.292" ry="86.608" style="fill:rgb(215,166,168);stroke:white;stroke-width:2.92px;"/>
                </g>
                <ellipse cx="491.256" cy="380.693" rx="79.292" ry="86.608" style="fill:rgb(215,166,168);stroke:white;stroke-width:3.33px;"/>
            </g>
            <g transform="matrix(1,0,0,1,-187.568,0)">
                <g transform="matrix(0.978178,0,0,1.28699,9.75675,12.428)">
                    <ellipse cx="491.256" cy="380.693" rx="79.292" ry="86.608" style="fill:rgb(215,166,168);stroke:white;stroke-width:2.92px;"/>
                </g>
                <ellipse cx="491.256" cy="380.693" rx="79.292" ry="86.608" style="fill:rgb(215,166,168);stroke:white;stroke-width:3.33px;"/>
            </g>
            <g transform="matrix(1,0,0,1,-380.705,0)">
                <g transform="matrix(0.978178,0,0,1.28699,9.75675,12.428)">
                    <ellipse cx="491.256" cy="380.693" rx="79.292" ry="86.608" style="fill:rgb(215,166,168);stroke:white;stroke-width:2.92px;"/>
                </g>
                <ellipse cx="491.256" cy="380.693" rx="79.292" ry="86.608" style="fill:rgb(215,166,168);stroke:white;stroke-width:3.33px;"/>
            </g>
            <path d="M850.955,88.437L850.955,196.494C850.955,226.312 826.746,250.522 796.927,250.522L685.063,250.522L598.167,343.141L637.665,250.522L588.998,250.522C559.179,250.522 534.97,226.312 534.97,196.494L534.97,88.437C534.97,58.618 559.179,34.409 588.998,34.409L796.927,34.409C826.746,34.409 850.955,58.618 850.955,88.437Z" style="fill:white;stroke:rgb(255,118,188);stroke-width:3.33px;"/>
        </g>
    </g>
</svg>
